<?xml version="1.0" standalone="no"?>
<!DOCTYPE svg PUBLIC "-//W3C//DTD SVG 20010904//EN"
 "http://www.w3.org/TR/2001/REC-SVG-20010904/DTD/svg10.dtd">
<svg version="1.0" xmlns="http://www.w3.org/2000/svg"
 width="212.000000pt" height="194.000000pt" viewBox="0 0 212.000000 194.000000"
 preserveAspectRatio="xMidYMid meet">

<g transform="translate(0.000000,194.000000) scale(0.100000,-0.100000)"
fill="#000000" stroke="none">
<path d="M1139 1686 c-42 -78 -114 -212 -160 -298 -46 -87 -86 -158 -89 -158
-3 0 -40 65 -83 145 -44 80 -80 145 -82 145 -2 0 -45 -80 -96 -177 -50 -98
-126 -243 -169 -323 -87 -164 -243 -461 -248 -472 -2 -5 14 -8 36 -8 l40 0 81
157 c44 87 102 199 129 248 27 50 88 166 137 259 71 137 90 166 99 154 6 -9
43 -74 81 -147 39 -72 72 -131 75 -131 3 0 26 39 51 88 181 347 269 503 279
497 4 -3 17 -22 28 -42 25 -49 185 -352 320 -608 59 -110 138 -261 177 -335
l71 -135 43 -3 c42 -3 42 -3 28 20 -8 13 -66 120 -128 238 -62 118 -147 280
-189 360 -42 80 -125 237 -185 350 -59 113 -122 230 -139 261 l-31 56 -76
-141z"/>
<path d="M914 1045 c-204 -21 -334 -53 -334 -81 0 -23 50 -41 204 -74 187 -40
266 -64 294 -90 26 -25 27 -29 7 -57 -33 -47 -246 -141 -550 -244 l-100 -34
530 -3 530 -3 41 45 c79 86 108 190 70 248 -9 14 -42 39 -74 56 -100 53 -221
83 -477 117 -146 19 -215 34 -215 46 0 20 52 40 165 63 137 28 106 31 -91 11z"/>
<path d="M1797 387 c-10 -6 -21 -25 -25 -42 -6 -19 -16 -31 -33 -35 -23 -6
-23 -6 -2 -12 21 -5 21 -7 7 -69 -15 -74 -17 -95 -6 -85 4 4 14 40 23 79 l15
72 40 0 c33 0 39 -3 36 -20 -15 -110 -14 -132 3 -139 10 -4 23 -2 29 4 7 7 5
10 -6 10 -26 0 -29 14 -15 77 10 44 19 61 38 70 l24 13 -23 0 c-19 0 -22 4
-17 20 3 11 2 20 -3 20 -5 0 -12 -9 -15 -20 -4 -16 -14 -20 -46 -20 -23 0 -41
4 -41 10 0 24 25 60 42 60 11 0 16 5 13 10 -8 13 -18 13 -38 -3z"/>
<path d="M1110 387 c0 -2 -11 -56 -25 -121 -14 -65 -25 -120 -25 -122 0 -2 9
-4 20 -4 11 0 20 2 20 5 0 3 11 57 25 121 14 64 25 117 25 120 0 2 -9 4 -20 4
-11 0 -20 -1 -20 -3z"/>
<path d="M1415 368 c-50 -29 -47 -66 10 -112 50 -42 54 -57 24 -87 -17 -17
-29 -20 -60 -16 -46 6 -53 -8 -9 -18 47 -10 94 21 98 67 3 31 -2 39 -37 68
-64 50 -51 90 29 90 33 0 41 3 30 10 -20 13 -60 12 -85 -2z"/>
<path d="M211 270 c-26 -123 -26 -132 -4 -128 13 2 23 25 37 86 10 45 22 82
26 82 5 0 11 -38 15 -85 7 -80 9 -85 30 -85 19 0 32 17 71 92 52 101 64 103
40 8 -21 -82 -20 -100 3 -100 16 0 23 16 41 98 12 53 24 105 26 115 5 14 -1
17 -35 17 -39 0 -40 -1 -82 -79 -24 -44 -47 -77 -51 -75 -4 3 -8 22 -8 42 0
20 -3 54 -6 75 -6 35 -9 37 -44 37 l-37 0 -22 -100z"/>
<path d="M536 293 c-4 -9 -9 -42 -13 -74 -5 -53 -4 -58 20 -74 15 -10 31 -13
39 -9 7 5 29 8 48 9 32 0 35 3 41 35 4 19 11 57 17 83 9 45 9 48 -11 45 -16
-2 -23 -15 -32 -55 -14 -62 -31 -85 -59 -81 -23 3 -26 29 -14 101 6 32 4 37
-12 37 -10 0 -21 -8 -24 -17z"/>
<path d="M746 291 c-22 -24 -14 -53 19 -75 44 -29 23 -63 -31 -50 -17 5 -24 2
-24 -9 0 -20 49 -31 83 -18 55 21 56 70 2 105 -32 21 -24 36 21 36 24 0 34 5
34 15 0 24 -82 20 -104 -4z"/>
<path d="M907 303 c-16 -16 -4 -23 38 -23 38 0 45 -3 45 -20 0 -17 -7 -20 -43
-20 -50 0 -77 -22 -77 -63 0 -35 33 -53 67 -38 13 6 35 8 48 5 26 -6 30 0 40
84 9 68 -2 82 -65 82 -25 0 -50 -3 -53 -7z m73 -96 c0 -21 -37 -50 -55 -44
-18 8 -20 43 -2 50 25 11 57 7 57 -6z"/>
<path d="M1197 303 c-15 -15 -5 -22 36 -25 60 -4 58 -31 -3 -38 -60 -7 -70
-15 -70 -56 0 -46 36 -66 74 -41 17 12 26 13 28 5 2 -6 11 -9 20 -6 10 4 19
26 24 60 10 63 8 89 -9 100 -15 9 -91 11 -100 1z m73 -91 c0 -15 -31 -52 -44
-52 -22 0 -36 22 -25 42 10 18 69 27 69 10z"/>
<path d="M1563 295 c-12 -8 -27 -30 -33 -49 -31 -95 56 -151 126 -81 29 29 34
104 8 129 -20 20 -73 21 -101 1z m93 -20 c19 -30 12 -70 -18 -102 -45 -48
-107 -9 -93 58 15 66 79 92 111 44z"/>
</g>
</svg>
